<svg xmlns="http://www.w3.org/2000/svg" width="21" height="20" viewBox="0 0 17 16" fill="none" class="text-[#1F2123]" aria-labelledby="CreditCardIcon" data-sentry-element="svg" data-sentry-component="CreditCard" data-sentry-source-file="icons.tsx"><title id="CreditCardIcon">Cartão de crédito</title><path d="M1.83334 5.5H14.8333M1.83334 6H14.8333M3.83334 9.5H7.83334M3.83334 11H5.83334M3.33334 13H13.3333C13.7312 13 14.1127 12.842 14.394 12.5607C14.6753 12.2794 14.8333 11.8978 14.8333 11.5V4.5C14.8333 4.10218 14.6753 3.72064 14.394 3.43934C14.1127 3.15804 13.7312 3 13.3333 3H3.33334C2.93552 3 2.55399 3.15804 2.27268 3.43934C1.99138 3.72064 1.83334 4.10218 1.83334 4.5V11.5C1.83334 11.8978 1.99138 12.2794 2.27268 12.5607C2.55399 12.842 2.93552 13 3.33334 13Z" stroke="currentColor" stroke-linecap="round" stroke-linejoin="round" data-sentry-element="path" data-sentry-source-file="icons.tsx"/></svg>