<svg width="24" height="19" viewBox="0 0 24 19" fill="none" xmlns="http://www.w3.org/2000/svg" data-sentry-element="svg" data-sentry-source-file="icons.tsx" data-sentry-component="SimpleCVVCardFlag"><rect x="0.699219" y="0.722656" width="22" height="15" rx="2" fill="white" stroke="#D9D9D9" data-sentry-element="rect" data-sentry-source-file="icons.tsx"/><rect x="0.257812" y="3.48047" width="22.9414" height="3.0918" fill="#D9D9D9" data-sentry-element="rect" data-sentry-source-file="icons.tsx"/><rect x="8.14062" y="10.2227" width="15.0586" height="5.96973" fill="white" data-sentry-element="rect" data-sentry-source-file="icons.tsx"/><path d="M12.5442 11.1489V16.1016H11.1756V12.8562C10.9542 13.0245 10.7394 13.1607 10.5312 13.2648C10.3253 13.3689 10.0662 13.4685 9.75395 13.5638V12.4543C10.2146 12.3059 10.5722 12.1277 10.8269 11.9195C11.0815 11.7114 11.2808 11.4545 11.4248 11.1489H12.5442ZM17.9752 16.1016H13.9161C13.9626 15.7007 14.1032 15.3243 14.3379 14.9722C14.5749 14.6179 15.0178 14.2004 15.6666 13.7199C16.063 13.4254 16.3166 13.2017 16.4273 13.0489C16.538 12.8961 16.5934 12.7511 16.5934 12.6138C16.5934 12.4654 16.538 12.3392 16.4273 12.2351C16.3188 12.1288 16.1815 12.0756 16.0154 12.0756C15.8427 12.0756 15.7009 12.1299 15.5902 12.2384C15.4817 12.3469 15.4086 12.5385 15.371 12.8131L14.0157 12.7034C14.0689 12.3225 14.1663 12.0258 14.308 11.8132C14.4498 11.5984 14.6491 11.4345 14.9059 11.3216C15.165 11.2065 15.5227 11.1489 15.9789 11.1489C16.455 11.1489 16.8248 11.2031 17.0883 11.3116C17.354 11.4201 17.5622 11.5873 17.7128 11.8132C17.8656 12.0369 17.942 12.2882 17.942 12.5672C17.942 12.864 17.8545 13.1474 17.6796 13.4176C17.5068 13.6878 17.1913 13.9845 16.7329 14.3078C16.4605 14.4961 16.2778 14.6278 16.1848 14.7031C16.094 14.7784 15.9866 14.877 15.8626 14.9988H17.9752V16.1016ZM19.8653 12.6403L18.5864 12.4111C18.6927 12.0037 18.8964 11.6914 19.1976 11.4744C19.501 11.2574 19.9295 11.1489 20.4831 11.1489C21.1187 11.1489 21.5782 11.2673 21.8616 11.5043C22.1451 11.7412 22.2868 12.0391 22.2868 12.3978C22.2868 12.6082 22.2292 12.7987 22.1141 12.9692C21.9989 13.1397 21.8251 13.2892 21.5926 13.4176C21.7808 13.4641 21.9247 13.5184 22.0244 13.5804C22.186 13.68 22.3112 13.8118 22.3997 13.9757C22.4905 14.1373 22.5359 14.3311 22.5359 14.557C22.5359 14.8404 22.4618 15.1128 22.3134 15.3741C22.165 15.6332 21.9513 15.8336 21.6723 15.9753C21.3933 16.1148 21.0268 16.1846 20.5728 16.1846C20.1299 16.1846 19.78 16.1326 19.5231 16.0285C19.2685 15.9244 19.0581 15.7727 18.892 15.5734C18.7281 15.3719 18.6019 15.1194 18.5133 14.8161L19.8653 14.6367C19.9184 14.9091 20.0004 15.0984 20.1111 15.2047C20.224 15.3088 20.3669 15.3608 20.5396 15.3608C20.7212 15.3608 20.8718 15.2944 20.9913 15.1615C21.1131 15.0286 21.174 14.8515 21.174 14.63C21.174 14.4042 21.1153 14.2292 20.998 14.1052C20.8828 13.9812 20.7256 13.9192 20.5263 13.9192C20.42 13.9192 20.2738 13.9458 20.0878 13.9989L20.1576 13.0323C20.2329 13.0434 20.2916 13.0489 20.3336 13.0489C20.5108 13.0489 20.6581 12.9924 20.7754 12.8795C20.895 12.7666 20.9548 12.6326 20.9548 12.4776C20.9548 12.3292 20.9105 12.2107 20.8219 12.1221C20.7333 12.0336 20.6116 11.9893 20.4565 11.9893C20.2971 11.9893 20.1675 12.038 20.0679 12.1354C19.9682 12.2306 19.9007 12.3989 19.8653 12.6403Z" fill="#AEAEAE" data-sentry-element="path" data-sentry-source-file="icons.tsx"/></svg>