<svg width="23" height="16" viewBox="0 0 23 16" fill="none" xmlns="http://www.w3.org/2000/svg" data-sentry-element="svg" data-sentry-source-file="icons.tsx" data-sentry-component="SimpleMasterCardFlag"><rect x="0.5" y="0.5" width="22" height="15" rx="2" fill="white" stroke="#D9D9D9" data-sentry-element="rect" data-sentry-source-file="icons.tsx"/><path d="M14.9746 2.99248C17.7501 2.99261 20 5.20605 20 7.93584C19.9997 10.6654 17.75 12.8781 14.9746 12.8782C13.7301 12.8782 12.5916 12.4325 11.7139 11.6956C10.8362 12.4322 9.69833 12.8782 8.4541 12.8782C5.67862 12.878 3.42871 10.6646 3.42871 7.93486C3.42898 5.20533 5.67879 2.99267 8.4541 2.99248C9.6981 2.99248 10.8363 3.43777 11.7139 4.17412C12.5916 3.43745 13.7303 2.99248 14.9746 2.99248Z" fill="#ED0006" data-sentry-element="path" data-sentry-source-file="icons.tsx"/><path d="M14.9741 2.99248C17.7498 2.99248 20.0005 5.20597 20.0005 7.93584C20.0002 10.6655 17.7496 12.8782 14.9741 12.8782C13.7296 12.8782 12.5921 12.4316 11.7144 11.6946C12.794 10.7881 13.4798 9.44143 13.48 7.93584C13.48 6.42982 12.7944 5.0817 11.7144 4.17509C12.592 3.43838 13.7298 2.99252 14.9741 2.99248Z" fill="#F9A000" data-sentry-element="path" data-sentry-source-file="icons.tsx"/><path d="M11.7144 4.1743C12.7946 5.08084 13.4799 6.42895 13.48 7.93504C13.48 9.44112 12.7945 10.7892 11.7144 11.6958C10.6343 10.7892 9.94873 9.44103 9.94873 7.93504C9.94884 6.42903 10.6342 5.08083 11.7144 4.1743Z" fill="#FF5E00" data-sentry-element="path" data-sentry-source-file="icons.tsx"/></svg>