<svg xmlns="http://www.w3.org/2000/svg" width="21" height="20" viewBox="0 0 21 20" fill="none" class="text-[#697077]" aria-labelledby="PixIcon" data-sentry-element="svg" data-sentry-component="Pix" data-sentry-source-file="icons.tsx"><title id="PixIcon">pix</title><path d="M10.1482 11.4543C10.3594 11.2428 10.7232 11.2428 10.9344 11.4543L13.9462 14.4696C14.5016 15.0257 15.2409 15.3311 16.0232 15.3311H16.6138L12.8158 19.1336C11.6307 20.2888 9.70624 20.2888 8.52108 19.1336L4.70746 15.3194H5.07122C5.8535 15.3194 6.59276 15.0139 7.14818 14.4579L10.1482 11.4543ZM10.9344 8.57212C10.6841 8.7875 10.3634 8.79141 10.1482 8.57212L7.14818 5.56854C6.59276 4.97722 5.8535 4.70702 5.07122 4.70702H4.70746L8.51717 0.891263C9.70624 -0.297088 11.6307 -0.297088 12.8158 0.891263L16.6177 4.69527H16.0232C15.2409 4.69527 14.5016 5.00072 13.9462 5.55679L10.9344 8.57212ZM5.07122 5.58812C5.611 5.58812 6.10774 5.80742 6.52235 6.19118L9.52241 9.19476C9.80403 9.44147 10.1717 9.61769 10.5433 9.61769C10.911 9.61769 11.2786 9.44147 11.5603 9.19476L14.572 6.17944C14.9554 5.79958 15.4834 5.58029 16.0232 5.58029H17.4978L19.7781 7.86332C20.9633 9.04987 20.9633 10.9765 19.7781 12.1631L17.4978 14.4461H16.0232C15.4834 14.4461 14.9554 14.2268 14.572 13.8431L11.5603 10.8277C11.0166 10.2834 10.0661 10.2834 9.52241 10.8317L6.52235 13.8313C6.10774 14.2151 5.611 14.4344 5.07122 14.4344H3.82661L1.55721 12.1631C0.370253 10.9765 0.370253 9.04987 1.55721 7.86332L3.82661 5.58812H5.07122Z" fill="currentColor" data-sentry-element="path" data-sentry-source-file="icons.tsx"/></svg>